<mxfile host="app.diagrams.net" agent="Mozilla/5.0 (Windows NT 10.0; Win64; x64) AppleWebKit/537.36 (KHTML, like Gecko) Chrome/140.0.0.0 Safari/537.36" version="28.2.5">
  <diagram id="Hh7Ep2pDmKtZjgJP1L1P" name="Página-1">
    <mxGraphModel dx="472" dy="245" grid="0" gridSize="10" guides="1" tooltips="1" connect="1" arrows="1" fold="1" page="1" pageScale="1" pageWidth="1169" pageHeight="827" background="light-dark(#FFFFFF,#000000)" math="0" shadow="0">
      <root>
        <mxCell id="0" />
        <mxCell id="1" parent="0" />
        <mxCell id="j1D5rnK84vjhWIw8Qy1M-3" value="&lt;p&gt;&lt;font style=&quot;font-size: 7px;&quot; face=&quot;Roboto&quot;&gt;&lt;span style=&quot;font-weight: 400;&quot;&gt;Usuários&lt;/span&gt;&lt;/font&gt;&lt;/p&gt;" style="swimlane;whiteSpace=wrap;html=1;hachureGap=4;fontFamily=Architects Daughter;fontSource=https%3A%2F%2Ffonts.googleapis.com%2Fcss%3Ffamily%3DArchitects%2BDaughter;fillColor=default;strokeColor=default;startSize=15;" vertex="1" parent="1">
          <mxGeometry x="338" y="226" width="61" height="127" as="geometry">
            <mxRectangle x="324" y="229" width="136" height="26" as="alternateBounds" />
          </mxGeometry>
        </mxCell>
        <mxCell id="j1D5rnK84vjhWIw8Qy1M-5" value="&lt;font style=&quot;font-size: 5px;&quot; face=&quot;Roboto&quot;&gt;id&lt;/font&gt;" style="text;html=1;align=center;verticalAlign=middle;resizable=0;points=[];autosize=1;strokeColor=none;fillColor=none;fontFamily=Architects Daughter;fontSource=https%3A%2F%2Ffonts.googleapis.com%2Fcss%3Ffamily%3DArchitects%2BDaughter;" vertex="1" parent="j1D5rnK84vjhWIw8Qy1M-3">
          <mxGeometry x="-3" y="7" width="22" height="26" as="geometry" />
        </mxCell>
        <mxCell id="j1D5rnK84vjhWIw8Qy1M-6" value="&lt;font face=&quot;Roboto&quot;&gt;&lt;span style=&quot;font-size: 5px;&quot;&gt;int&lt;/span&gt;&lt;/font&gt;" style="text;html=1;align=center;verticalAlign=middle;resizable=0;points=[];autosize=1;strokeColor=none;fillColor=none;fontFamily=Architects Daughter;fontSource=https://fonts.googleapis.com/css?family=Architects+Daughter;" vertex="1" parent="j1D5rnK84vjhWIw8Qy1M-3">
          <mxGeometry x="37" y="5" width="24" height="27" as="geometry" />
        </mxCell>
        <mxCell id="j1D5rnK84vjhWIw8Qy1M-9" value="&lt;font style=&quot;font-size: 5px;&quot; face=&quot;Roboto&quot;&gt;id&lt;/font&gt;" style="text;html=1;align=center;verticalAlign=middle;resizable=0;points=[];autosize=1;strokeColor=none;fillColor=none;fontFamily=Architects Daughter;fontSource=https%3A%2F%2Ffonts.googleapis.com%2Fcss%3Ffamily%3DArchitects%2BDaughter;" vertex="1" parent="j1D5rnK84vjhWIw8Qy1M-3">
          <mxGeometry x="-3" y="17" width="22" height="26" as="geometry" />
        </mxCell>
        <mxCell id="j1D5rnK84vjhWIw8Qy1M-10" value="&lt;font face=&quot;Roboto&quot;&gt;&lt;span style=&quot;font-size: 5px;&quot;&gt;int&lt;/span&gt;&lt;/font&gt;" style="text;html=1;align=center;verticalAlign=middle;resizable=0;points=[];autosize=1;strokeColor=none;fillColor=none;fontFamily=Architects Daughter;fontSource=https://fonts.googleapis.com/css?family=Architects+Daughter;" vertex="1" parent="j1D5rnK84vjhWIw8Qy1M-3">
          <mxGeometry x="37" y="13" width="24" height="27" as="geometry" />
        </mxCell>
      </root>
    </mxGraphModel>
  </diagram>
</mxfile>
